<?xml version="1.0" encoding="UTF-8" standalone="no"?>
<!DOCTYPE svg PUBLIC "-//W3C//DTD SVG 1.1//EN" "http://www.w3.org/Graphics/SVG/1.1/DTD/svg11.dtd">
<!-- Created with Vectornator (http://vectornator.io/) -->
<svg height="100%" stroke-miterlimit="10" style="fill-rule:nonzero;clip-rule:evenodd;stroke-linecap:round;stroke-linejoin:round;" version="1.1" viewBox="0 0 750 1200" width="100%" xml:space="preserve" xmlns="http://www.w3.org/2000/svg" xmlns:vectornator="http://vectornator.io" xmlns:xlink="http://www.w3.org/1999/xlink">
<defs/>
<clipPath id="ArtboardFrame">
<rect height="1200" width="750" x="0" y="0"/>
</clipPath>
<g clip-path="url(#ArtboardFrame)" id="Layer-2" vectornator:layerName="Layer 2">
<g fill="#131313" opacity="1" stroke="#040a10" stroke-linecap="butt" stroke-linejoin="round" stroke-width="2.09326" vectornator:layerName="Curve 1">
<path d="M135.525 1135.91C128.702 1134.76 121.096 1132.86 112.707 1130.22C108.101 1128.84 105.075 1127.05 103.63 1124.87C102.185 1122.69 101.94 1119.5 102.895 1115.3C105.696 1103.8 110.08 1089.74 116.046 1073.14C122.012 1056.55 128.52 1040.68 135.571 1025.53C136.894 1022.73 138.89 1020.95 141.561 1020.19C144.231 1019.44 147.567 1019.4 151.567 1020.08C158.743 1021.3 161.992 1023.91 161.312 1027.91C161.033 1029.55 160.36 1031.38 159.295 1033.37C154.637 1042.27 149.435 1054.36 143.689 1069.67C137.943 1084.97 133.204 1099.69 129.472 1113.83C132.942 1114.78 136.912 1115.63 141.383 1116.39C161.971 1119.89 178.413 1116.27 190.707 1105.52C203.002 1094.78 210.917 1079 214.454 1058.17C216.831 1044.17 214.67 1032.67 207.968 1023.67C201.267 1014.66 190.622 1008.92 176.033 1006.44C166.622 1004.84 157.048 1004.73 147.313 1006.1C137.578 1007.47 128.595 1009.94 120.364 1013.51C118.655 1014.31 116.918 1014.56 115.153 1014.26C113.153 1013.92 111.71 1012.8 110.823 1010.89C109.936 1008.98 109.703 1006.8 110.122 1004.32C110.602 1001.5 111.467 999.258 112.718 997.594C113.969 995.93 115.842 994.524 118.337 993.374C127.394 989.223 137.637 986.635 149.068 985.611C160.499 984.587 171.273 984.934 181.391 986.652C195.744 989.09 207.732 993.698 217.353 1000.48C226.975 1007.25 233.79 1015.95 237.799 1026.55C241.808 1037.16 242.653 1049.29 240.335 1062.93C237.318 1080.7 231.156 1095.6 221.85 1107.64C212.543 1119.67 200.505 1128.19 185.737 1133.19C170.969 1138.18 154.231 1139.09 135.525 1135.91Z"/>
<path d="M248.507 1151.69C243.987 1151.32 240.996 1148.69 239.535 1143.78C238.073 1138.88 237.762 1131.19 238.603 1120.72C239.844 1105.26 243.224 1090.75 248.743 1077.18C250.09 1073.82 252.048 1071.43 254.615 1070.02C257.183 1068.61 260.667 1068.08 265.068 1068.44C267.447 1068.63 269.089 1069.06 269.992 1069.73C270.896 1070.4 271.281 1071.57 271.148 1073.23C270.995 1075.14 269.759 1079.35 267.44 1085.87C265.868 1090.53 264.582 1094.61 263.582 1098.13C262.582 1101.64 261.634 1105.99 260.738 1111.19C265.485 1101.27 270.554 1093.3 275.947 1087.27C281.34 1081.24 286.495 1077.04 291.413 1074.68C296.332 1072.32 300.753 1071.3 304.679 1071.62C312.411 1072.24 315.966 1076.41 315.345 1084.14C315.221 1085.69 314.385 1089.4 312.837 1095.26C311.503 1099.94 310.789 1102.87 310.693 1104.06C310.359 1108.23 311.679 1110.43 314.652 1110.67C317.983 1110.93 322.475 1108.66 328.129 1103.85C329.8 1102.43 331.468 1101.78 333.133 1101.91C334.679 1102.04 335.844 1102.82 336.626 1104.26C337.408 1105.7 337.709 1107.55 337.527 1109.81C337.174 1114.21 335.708 1117.56 333.128 1119.87C329.52 1123.05 325.388 1125.69 320.732 1127.77C316.076 1129.85 311.249 1130.69 306.253 1130.28C299.949 1129.78 295.29 1127.79 292.277 1124.31C289.264 1120.84 287.977 1116.37 288.416 1110.89C288.559 1109.11 288.881 1107.34 289.381 1105.58C289.81 1103.22 290.058 1101.63 290.125 1100.8C290.278 1098.89 289.7 1097.89 288.391 1097.78C286.607 1097.64 284.098 1099.44 280.864 1103.19C277.629 1106.95 274.322 1111.98 270.942 1118.29C267.562 1124.6 264.688 1131.32 262.322 1138.43C260.564 1143.92 258.744 1147.57 256.862 1149.39C254.98 1151.22 252.195 1151.98 248.507 1151.69Z"/>
<path d="M375.785 1157.52C368.744 1157.52 362.748 1155.76 357.796 1152.23C352.844 1148.71 349.116 1144.09 346.611 1138.36C344.105 1132.63 342.853 1126.49 342.854 1119.92C342.856 1110.85 344.557 1102.77 347.959 1095.67C351.361 1088.57 355.986 1083.02 361.834 1079.02C367.682 1075.03 374.246 1073.03 381.525 1073.03C388.566 1073.03 394.592 1074.79 399.603 1078.31C404.615 1081.83 408.373 1086.46 410.878 1092.19C413.384 1097.92 414.636 1104.06 414.635 1110.62C414.633 1119.69 412.902 1127.78 409.44 1134.88C405.978 1141.98 401.294 1147.53 395.386 1151.52C389.479 1155.52 382.945 1157.52 375.785 1157.52ZM377.757 1138.19C381.814 1138.19 385.245 1135.98 388.05 1131.56C390.855 1127.15 392.258 1120.71 392.26 1112.23C392.26 1105.67 391.068 1100.72 388.682 1097.38C386.296 1094.03 383.432 1092.36 380.09 1092.36C375.794 1092.36 372.244 1094.54 369.439 1098.89C366.634 1103.25 365.231 1109.72 365.23 1118.31C365.229 1125.12 366.421 1130.13 368.807 1133.35C371.194 1136.57 374.177 1138.18 377.757 1138.19Z"/>
<path d="M508.156 1111.23C509.705 1111.14 510.967 1111.79 511.942 1113.16C512.917 1114.54 513.476 1116.48 513.619 1118.99C513.871 1123.39 512.95 1127.15 510.856 1130.26C505.672 1137.85 499.059 1143.96 491.017 1148.6C482.975 1153.25 473.771 1155.86 463.406 1156.46C455.304 1156.92 448.205 1156.1 442.109 1154C436.013 1151.9 431.265 1148.82 427.866 1144.77C424.468 1140.72 422.618 1136.08 422.319 1130.83C421.87 1122.97 424.629 1115.82 430.597 1109.38C436.564 1102.95 445.285 1096.59 456.76 1090.32L427.493 1092.71C424.878 1092.98 422.83 1092.17 421.348 1090.28C419.865 1088.39 419.046 1086.08 418.889 1083.34C418.726 1080.48 419.267 1077.91 420.511 1075.63C421.755 1073.34 423.568 1072.13 425.951 1072C431.432 1071.68 438.783 1071.68 448.004 1071.99C449.917 1072 453.415 1072.04 458.499 1072.11C463.583 1072.18 467.852 1072.11 471.307 1071.92C472.499 1071.85 474.735 1071.24 478.017 1070.1C478.606 1069.95 479.75 1069.58 481.451 1069.01C483.151 1068.43 484.597 1068.11 485.788 1068.04C487.694 1067.93 489.321 1068.68 490.667 1070.27C492.013 1071.87 492.785 1074.4 492.982 1077.85C493.2 1081.66 492.476 1084.69 490.812 1086.94C489.147 1089.19 486.456 1091.25 482.739 1093.14C472.163 1098.4 463.452 1103.89 456.606 1109.6C449.761 1115.31 446.488 1120.79 446.787 1126.03C446.977 1129.37 448.683 1132.02 451.903 1133.98C455.123 1135.95 459.771 1136.76 465.847 1136.42C472.519 1136.03 479.185 1133.98 485.845 1130.25C492.505 1126.53 498.381 1121.11 503.474 1114.01C504.808 1112.26 506.369 1111.33 508.156 1111.23Z"/>
<path d="M628.045 1093.26C629.579 1093.03 630.895 1093.56 631.992 1094.84C633.088 1096.13 633.822 1098.01 634.192 1100.49C634.897 1105.21 634.323 1109.03 632.468 1111.97C628.511 1118.59 623.953 1124.43 618.796 1129.48C613.639 1134.54 608.227 1137.49 602.562 1138.33C593.592 1139.67 585.962 1135.44 579.672 1125.64C575.65 1132.64 571.938 1137.48 568.538 1140.16C565.137 1142.84 560.959 1144.55 556.002 1145.29C548.802 1146.36 542.471 1144.56 537.006 1139.89C531.542 1135.22 528.167 1128.57 526.88 1119.96C525.469 1110.51 526.167 1101.45 528.972 1092.77C531.777 1084.08 536.308 1076.65 542.563 1070.47C548.819 1064.28 556.243 1060.07 564.835 1057.82C563.658 1034.59 565.014 1014.38 568.904 997.213C572.794 980.042 579.873 970.689 590.142 969.155C595.217 968.397 599.78 970.068 603.831 974.169C607.882 978.269 610.604 984.982 611.997 994.306C613.971 1007.52 613.035 1023.47 609.188 1042.14C605.342 1060.82 599.382 1080.29 591.309 1100.56C592.804 1107.33 594.568 1112.08 596.602 1114.79C598.636 1117.5 600.893 1118.67 603.371 1118.3C606.558 1117.83 609.592 1115.93 612.473 1112.6C615.355 1109.27 619.076 1103.89 623.635 1096.45C624.805 1094.59 626.275 1093.52 628.045 1093.26ZM590.786 986.796C588.543 987.131 586.896 991.449 585.843 999.751C584.791 1008.05 584.429 1018.75 584.757 1031.86C585.085 1044.96 585.945 1058.59 587.334 1072.74C596.251 1041.96 599.405 1017.84 596.796 1000.38C596.126 995.892 595.222 992.468 594.085 990.104C592.948 987.74 591.848 986.637 590.786 986.796ZM559.527 1126.48C561.77 1126.15 563.875 1124.9 565.845 1122.73C567.814 1120.57 570.139 1116.75 572.822 1111.28C570.689 1105.09 569.033 1098.03 567.852 1090.13C567.428 1087.29 566.859 1082.67 566.143 1076.26C559.951 1079.24 555.2 1084.38 551.888 1091.7C548.576 1099.01 547.528 1106.74 548.745 1114.88C550.032 1123.49 553.626 1127.36 559.527 1126.48Z"/>
<path d="M652.08 1029.76C647.188 1030.86 643.266 1030.54 640.313 1028.82C637.36 1027.09 635.429 1024.19 634.519 1020.11C633.609 1016.04 634.45 1012.27 637.042 1008.82C639.634 1005.37 643.317 1003.11 648.092 1002.04C652.402 1001.08 656.13 1001.35 659.276 1002.85C662.423 1004.35 664.425 1007.02 665.283 1010.86C666.323 1015.52 665.635 1019.56 663.217 1022.97C660.8 1026.38 657.088 1028.65 652.08 1029.76ZM656.25 1127.32C652.523 1128.15 649.792 1127.97 648.056 1126.77C646.321 1125.57 645.089 1123.33 644.361 1120.07C644.153 1119.14 643.905 1117.48 643.618 1115.1C640.724 1093.37 639.482 1073.29 639.891 1054.86C640.017 1051.04 640.995 1048.16 642.824 1046.23C644.654 1044.29 647.957 1042.79 652.732 1041.72C657.74 1040.61 660.699 1042.09 661.609 1046.16C661.739 1046.74 661.869 1047.88 662 1049.56C662.323 1075.65 663.845 1097.26 666.567 1114.38C667.166 1118.16 666.644 1121.03 665.002 1122.98C663.36 1124.94 660.443 1126.39 656.25 1127.32Z"/>
</g>
<g opacity="1" vectornator:layerName="Group 5">
<g opacity="1" vectornator:layerName="Group 1">
<path d="M439.483 147.3L440.583 160.686L459.433 161.132C459.433 161.132 463.393 172.701 480.243 171.614C491.433 170.891 503.743 161.929 503.073 152.691C502.633 146.692 495.623 137.022 477.953 136.321C461.573 135.672 459.143 147.448 459.143 147.448L439.483 147.3Z" fill="#040a10" fill-rule="nonzero" opacity="1" stroke="#040a10" stroke-linecap="butt" stroke-linejoin="round" stroke-width="2.09326" vectornator:layerName="Curve 7"/>
<path d="M432.393 92.9123L434.903 106.877L453.543 107.071C453.543 107.071 457.513 118.64 474.353 117.553C485.553 116.83 497.863 107.868 497.183 98.6303C496.753 92.6322 489.733 82.9613 472.063 82.2603C455.683 81.6113 453.263 93.3872 453.263 93.3872L432.393 92.9123Z" fill="#040a10" fill-rule="nonzero" opacity="1" stroke="#040a10" stroke-linecap="butt" stroke-linejoin="round" stroke-width="2.09326" vectornator:layerName="Curve 3"/>
<path d="M387.793 132.612L389.603 118.115L366.763 117.967C366.763 117.967 364.913 106.808 350.713 106.626C340.173 106.491 323.773 118.129 324.653 125.46C325.573 133.194 331.463 143.455 349.123 144.3C363.583 144.993 367.243 133.304 367.243 133.304L387.793 132.612Z" fill="#040a10" fill-rule="nonzero" opacity="1" stroke="#040a10" stroke-linecap="butt" stroke-linejoin="round" stroke-width="2.09326" vectornator:layerName="Curve 4"/>
<path d="M385.493 191.303L385.343 177.517L367.113 177.064C367.113 177.064 365.943 164.043 347.543 165.235C336.353 165.961 324.023 174.571 323.933 181.948C323.863 187.962 332.603 200.943 350.253 201.922C364.293 202.699 367.833 191.225 367.833 191.225L385.493 191.303Z" fill="#040a10" fill-rule="nonzero" opacity="1" stroke="#040a10" stroke-linecap="butt" stroke-linejoin="round" stroke-width="2.09326" vectornator:layerName="Curve 2"/>
<g opacity="1" vectornator:layerName="Group 4"/>
<path d="M192.073 953.812C199.523 954.492 223.933 946.012 219.253 923.172C216.473 909.602 189.053 826.862 219.123 736.762C245.623 657.372 302.993 624.182 345.623 601.422C411.513 566.232 431.343 503.372 417.113 447.412C405.633 402.222 378.643 377.022 355.233 355.747C318.773 322.597 264.163 299.46 216.103 263.735C167.513 227.613 146.993 202.49 125.103 170.378C94.3926 125.345 94.4626 86.4742 94.4626 86.4742C94.4626 86.4742 50.5426 160.353 79.4326 242.364C104.653 313.966 146.003 340.721 184.663 360.195C212.763 374.344 262.933 378.362 293.623 381.152C331.303 384.582 361.543 410.492 361.543 410.492C361.543 410.492 333.963 397.422 295.963 399.022C182.893 403.782 159.603 391.652 103.753 357.676C46.6026 322.91 28.2826 278.701 28.2826 278.701C28.2826 278.701 24.5726 342.77 54.1826 389.052C80.1826 429.672 103.053 450.442 141.433 464.732C191.163 483.242 227.353 478.632 266.143 465.452C309.733 450.642 323.453 441.032 323.453 441.032C323.453 441.032 278.873 490.652 244.693 501.542C188.813 519.332 153.883 501.832 153.883 501.832C153.883 501.832 179.933 532.762 217.763 539.962C254.123 546.872 270.493 545.252 300.673 526.352C330.843 507.442 337.473 461.512 337.473 461.512C337.473 461.512 353.623 512.802 319.453 567.372C285.283 621.942 252.153 637.522 203.273 679.072C153.323 721.532 113.833 770.922 97.6626 806.932C80.1326 845.972 108.623 868.772 122.903 867.022C141.533 864.742 147.393 844.552 155.253 820.912C162.413 799.342 172.203 786.362 172.203 786.362C172.203 786.362 156.563 829.852 154.153 868.332C151.743 906.802 154.133 913.662 160.273 928.942C167.673 947.372 181.173 952.822 192.073 953.812Z" fill="#040a10" fill-rule="nonzero" opacity="1" stroke="#040a10" stroke-linecap="butt" stroke-linejoin="round" stroke-width="2.09326" vectornator:layerName="Curve 5"/>
</g>
<g opacity="1" vectornator:layerName="4 strings">
<path d="M425.116 0L402.179 0.59375L394.835 39.125L393.335 38.9375L392.835 29.5625C392.835 29.5625 386.55 28.9635 383.96 31.4375C381.37 33.9105 383.398 39.9375 383.398 39.9375L376.523 40.1562C376.523 40.1562 374.434 54.2658 377.554 58.8438C381.214 64.2278 391.116 57.8125 391.116 57.8125C391.116 57.8125 385.946 73.7095 388.116 77.0625C390.646 80.9625 404.241 78.9687 404.241 78.9688C404.241 78.9688 395.68 96.9235 391.96 126.312C388.25 155.703 389.398 196.531 389.398 196.531L389.679 196.531L389.679 196.219L436.71 196.281L436.71 196.625L439.148 196.625C439.159 196.605 439.167 196.583 439.179 196.562C439.174 196.454 436.926 145.651 432.96 116.344C429 87.0047 423.335 79.2812 423.335 79.2812C423.335 79.2812 425.815 78.5332 429.835 78.6562C433.855 78.7792 436.959 79.4102 438.429 77.2812C439.889 75.1822 439.548 71.6275 437.398 67.5625C434.778 62.6165 436.179 59.4375 436.179 59.4375C436.179 59.4375 440.325 60.869 443.585 60.125C446.375 59.487 448.843 58.9172 450.523 56.7812C454.533 51.7072 451.648 40.4062 451.648 40.4062L444.148 40.4062C444.148 40.4062 446.529 34.591 444.679 31.5C442.819 28.41 435.991 28.1562 435.991 28.1562L434.148 39.5312L432.523 39.7812L425.116 0ZM436.71 196.625L389.679 196.531L389.679 197.812C389.737 197.856 389.773 197.968 389.835 198C389.968 198.085 390.079 198.186 390.241 198.281C390.411 198.386 390.486 198.591 390.616 198.75C390.434 198.572 390.247 198.406 390.054 198.25C390.487 198.439 390.802 198.921 391.054 199.469C391.025 199.374 391.005 199.273 390.96 199.188C390.98 199.234 391.034 199.265 391.054 199.312C391.11 199.429 391.099 199.453 391.116 199.531C391.618 200.692 391.754 201.847 391.804 203.188C391.811 203.312 391.862 203.439 391.866 203.562C391.886 204.011 391.85 204.545 391.835 205C391.831 205.12 391.857 205.459 391.866 205.625C391.869 205.666 391.866 205.781 391.866 205.781C391.896 231.215 391.898 256.661 391.898 282.094C391.908 292.145 391.918 302.2 391.898 312.25C391.898 315.84 391.886 319.411 391.866 323C391.857 325.142 391.959 327.34 391.679 329.469C391.439 331.273 390.925 333.054 390.585 334.844C390.055 337.706 389.608 340.594 389.148 343.469C388.698 340.594 388.24 337.706 387.71 334.844C387.37 333.054 386.856 331.272 386.616 329.469C386.384 327.7 386.425 325.886 386.429 324.094C379.352 332.445 375.491 338.469 375.491 338.469C375.491 338.469 424.434 382.546 442.804 422.906C461.174 463.266 452.085 499.781 452.085 499.781C452.085 499.781 470.953 463.226 462.773 425.906C453.883 385.356 467.616 364.938 467.616 364.938C467.616 364.938 460.105 386.124 475.085 415.344C494.055 452.344 502.17 505.25 470.96 555.75C447.67 593.44 413.974 614.125 361.054 634.375C322.474 649.135 273.6 675.107 248.71 731.188C229.29 774.938 227.449 811.515 248.429 857.375C266.519 896.955 299.926 914.237 315.116 923.688C340.736 939.608 400.366 943.969 400.366 943.969L399.648 953.844C399.648 953.844 400.34 963.804 407.96 965.344C411.39 966.044 416.543 965.741 419.023 965.031C426.203 962.951 425.679 955.344 425.679 955.344L425.773 943.969C425.773 943.969 444.418 942.786 461.398 939.906C473.788 937.806 493.618 933.953 514.898 923.562C538.638 911.962 554.994 902.994 574.804 875.594C594.624 848.204 604.753 827.849 604.523 784.969C604.293 744.269 589.924 721.989 591.304 703.469C592.814 683.259 605.179 673.844 605.179 673.844C605.179 673.844 599.559 670.17 594.929 666C590.299 661.83 586.648 657.156 586.648 657.156C586.648 657.156 574.114 676.353 556.054 667.812C538.394 659.473 526.188 636.164 525.648 602.344C525.168 572.964 535.64 553.31 551.46 541.25C571.63 525.86 582.991 548.906 582.991 548.906C582.991 548.906 586.343 543.564 590.773 539.094C595.193 534.624 600.71 531.031 600.71 531.031C600.71 531.031 589.994 522.2 591.554 502.75C593.124 483.3 599.813 475.253 607.023 450.312C621.133 401.552 630.308 377.635 657.898 349.688C687.008 320.194 721.866 309.156 721.866 309.156C721.866 309.156 698.341 306.79 679.241 309.406C657.911 312.327 637.898 321.719 637.898 321.719C637.898 321.719 592.578 255.047 508.648 261.875C481.109 264.115 458.249 271.962 439.554 281.75C439.558 289.906 439.554 298.063 439.554 306.219C439.554 319.914 439.564 333.648 439.554 347.344C439.554 352.235 439.533 357.11 439.523 362C439.512 364.922 439.598 367.873 439.398 370.781C439.198 373.79 438.61 376.689 438.21 379.625C437.68 383.52 437.233 387.423 436.773 391.344C436.313 387.423 435.865 383.52 435.335 379.625C434.935 376.689 434.379 373.79 434.179 370.781C434.039 368.734 434.064 367.024 434.054 364.969C434.034 360.077 434.023 355.173 434.023 350.281C434.003 336.586 433.991 322.883 433.991 309.188C433.991 273.971 434.034 238.718 434.054 203.5C434.054 203.185 434.228 202.982 434.273 202.688L434.148 202.594L434.116 202.594C434.083 202.126 434.134 201.721 434.179 201.312C434.172 201.362 434.121 201.386 434.116 201.438C434.106 201.621 433.955 201.869 434.085 202C434.065 201.982 434.074 202.019 434.054 202C433.914 201.881 434.075 201.622 434.085 201.438C434.1 201.274 434.148 201.108 434.179 200.938C434.21 200.767 434.223 200.594 434.273 200.438C434.32 200.292 434.438 200.205 434.523 200.094C434.879 199.301 435.647 198.697 436.71 198.188L436.71 196.625ZM404.866 198.594C406.271 198.594 407.398 199.874 407.398 201.438C407.416 229.962 407.46 258.475 407.46 287C407.46 298.249 407.438 309.531 407.429 320.781C407.419 324.798 407.407 328.795 407.398 332.812C407.388 335.209 407.472 337.653 407.21 340.031C406.985 342.052 406.519 344.06 406.21 346.062C405.704 349.264 405.288 352.468 404.866 355.688C404.435 352.468 404.028 349.264 403.523 346.062C403.213 344.06 402.716 342.052 402.491 340.031C402.229 337.653 402.282 335.209 402.273 332.812C402.254 329.197 402.241 325.583 402.241 321.969C402.223 310.317 402.241 298.651 402.241 287C402.241 258.475 402.285 229.962 402.304 201.438C402.304 199.874 403.461 198.594 404.866 198.594ZM420.898 198.656C422.398 198.656 423.616 200.233 423.616 202.156C423.646 233.391 423.669 264.61 423.679 295.844C423.679 308.337 423.689 320.85 423.679 333.344C423.669 337.807 423.668 342.257 423.648 346.719C423.648 349.386 423.713 352.093 423.523 354.75C423.323 357.485 422.735 360.135 422.335 362.812C421.805 366.368 421.358 369.924 420.898 373.5C420.448 369.924 419.99 366.368 419.46 362.812C419.06 360.135 418.504 357.485 418.304 354.75C418.164 352.882 418.179 351.311 418.179 349.438C418.159 344.976 418.158 340.462 418.148 336C418.138 323.507 418.116 311.056 418.116 298.562C418.126 266.436 418.149 234.284 418.179 202.156C418.169 200.233 419.398 198.656 420.898 198.656ZM539.898 343.562C556.118 344.977 562.355 360.328 561.835 370.406C561.215 382.371 549.275 393.816 537.085 393.156C524.905 392.506 514.878 380.42 514.898 368C514.918 356.984 524.538 342.222 539.898 343.562ZM434.366 607.188C434.826 610.778 435.264 614.357 435.804 617.938C436.134 620.167 436.668 622.437 436.898 624.688C437.187 627.358 437.106 630.07 437.116 632.75C437.136 636.78 437.116 640.804 437.116 644.844C437.136 657.834 437.158 670.822 437.148 683.812C437.148 713.132 437.113 742.44 437.085 771.75L454.085 771.906C454.085 771.906 433.524 801.34 426.804 837.75C419.044 879.8 419.366 940.094 419.366 940.094L405.366 940.438C405.366 940.438 407.526 883.984 398.866 841.594C390.206 799.194 369.554 771.125 369.554 771.125L384.023 771.25C383.994 746.519 383.96 721.794 383.96 697.062C383.95 686.932 383.94 676.786 383.96 666.656C383.96 663.036 383.971 659.401 383.991 655.781C384.001 653.621 383.889 651.431 384.179 649.281C384.409 647.461 384.933 645.644 385.273 643.844C385.803 640.954 386.25 638.056 386.71 635.156C387.16 638.056 387.618 640.954 388.148 643.844C388.488 645.644 389.001 647.461 389.241 649.281C389.521 651.431 389.45 653.621 389.46 655.781C389.47 659.041 389.481 662.312 389.491 665.562C389.501 676.063 389.491 686.572 389.491 697.062C389.482 721.815 389.457 746.561 389.429 771.312L399.898 771.406C399.878 746.675 399.844 721.954 399.835 697.219C399.835 685.949 399.825 674.676 399.835 663.406C399.845 659.376 399.856 655.342 399.866 651.312C399.876 648.913 399.805 646.463 400.085 644.062C400.325 642.043 400.839 640.041 401.179 638.031C401.709 634.821 402.166 631.595 402.616 628.375C403.076 631.595 403.514 634.821 404.054 638.031C404.384 640.041 404.918 642.042 405.148 644.062C405.437 646.462 405.325 648.912 405.335 651.312C405.355 654.943 405.366 658.568 405.366 662.188C405.386 673.858 405.366 685.549 405.366 697.219C405.366 721.964 405.325 746.696 405.304 771.438L415.773 771.531C415.746 745.2 415.71 718.859 415.71 692.531C415.7 680.641 415.69 668.765 415.71 656.875C415.71 652.625 415.721 648.365 415.741 644.125C415.751 641.585 415.67 639.03 415.96 636.5C416.19 634.37 416.724 632.245 417.054 630.125C417.594 626.735 418.031 623.338 418.491 619.938C418.941 623.338 419.399 626.735 419.929 630.125C420.269 632.245 420.783 634.37 421.023 636.5C421.302 639.03 421.2 641.585 421.21 644.125C421.22 647.945 421.231 651.774 421.241 655.594C421.251 667.914 421.273 680.221 421.273 692.531C421.264 718.88 421.23 745.241 421.21 771.594L431.648 771.688C431.628 742.398 431.594 713.111 431.585 683.812C431.585 671.272 431.606 658.728 431.616 646.188C431.626 642.158 431.606 638.134 431.616 634.094C431.626 630.974 431.505 627.798 431.835 624.688C432.075 622.438 432.599 620.168 432.929 617.938C433.469 614.358 433.916 610.778 434.366 607.188Z" fill="#040a10" fill-rule="nonzero" opacity="1" stroke="#040a10" stroke-linecap="butt" stroke-linejoin="round" stroke-width="2.09326" vectornator:layerName="Curve 1"/>
<path d="M434.048 207.424C434.226 197.434 439.162 196.625 439.162 196.625" fill="none" opacity="1" stroke="#040a10" stroke-linecap="butt" stroke-linejoin="round" stroke-width="2.09326" vectornator:layerName="Curve 2"/>
<path d="M392.22 212.423C392.132 198.8 389.696 197.696 389.696 197.696" fill="none" opacity="1" stroke="#040a10" stroke-linecap="butt" stroke-linejoin="round" stroke-width="2.58795" vectornator:layerName="Curve 3"/>
<path d="M389.313 199.287C389.022 198.772 388.413 199.097 388.347 196.52C388.281 193.944 390.905 195.779 390.905 195.779L392.156 199.044C392.156 199.044 389.604 199.802 389.313 199.287Z" fill="#040a10" fill-rule="nonzero" opacity="1" stroke="none" vectornator:layerName="Curve 4"/>
</g>
</g>
</g>
</svg>
